<?xml version="1.0" encoding="UTF-8"?>
<!-- Generated by Pixelmator Pro 3.2.3 -->
<svg width="800" height="800" viewBox="0 0 800 800" xmlns="http://www.w3.org/2000/svg" xmlns:xlink="http://www.w3.org/1999/xlink">
    <path id="Traado" fill="#000000" stroke="none" d="M 346.646423 108.793579 C 382.905579 108.793579 412.297607 138.185608 412.297607 174.444824 C 412.297607 210.703979 382.905579 240.096008 346.646423 240.096008 C 310.387207 240.096008 280.992004 210.703979 280.992004 174.444824 C 280.992004 138.185608 310.387207 108.793579 346.646423 108.793579 Z M 105.820801 506.63681 L 105.216003 506.031982 L 105.216003 506.031982 C 102.492798 504.21759 100.073601 502.70401 97.9552 500.284821 L 105.216003 583.484802 L 13.8464 712.972778 C 0.8384 731.731201 5.376 757.14563 23.526402 770.153625 C 42.284798 783.161621 67.699203 778.624023 80.707199 760.473572 L 179.337601 618.278442 C 184.480011 611.017578 187.807999 601.334412 186.598404 591.654419 L 183.270401 551.417603 Z M 377.203186 777.414429 L 768.694397 777.414429 L 695.478394 548.995239 C 695.478394 548.995239 654.028809 559.283203 572.041626 646.412781 C 570.227173 648.227173 568.108765 650.345581 566.294373 652.160034 L 368.432007 537.798401 C 371.76001 531.446411 372.364807 524.182434 371.155212 516.316772 L 300.960022 256.131226 C 295.212799 230.716797 272.521606 211.353577 245.897614 211.353577 L 114.895996 211.353577 C 105.216003 211.353577 95.532799 216.495972 90.086403 224.969604 L 24.739201 338.422424 C 16.268801 352.038391 21.4112 369.584015 35.027199 377.449615 L 108.243202 419.503998 L 98.563202 435.839996 C 86.764801 455.203217 93.420799 480.012787 113.388794 490.902405 L 277.664001 585.599976 L 277.664001 735.660767 C 277.664001 758.35199 295.817596 776.505615 318.508789 776.505615 C 341.200012 776.505615 359.353577 758.35199 359.353577 735.660767 L 359.353577 564.422424 L 541.180786 669.708801 C 503.664001 691.190369 460.70401 695.123169 430.147217 713.27356 C 392.630402 735.664001 377.203186 777.414429 377.203186 777.414429 Z M 122.156799 395.60321 L 74.051201 367.769592 L 74.051201 367.769592 L 131.231995 269.139221 L 195.372803 269.139221 Z M 227.747192 456.716797 L 273.129578 377.449615 L 307.014404 502.096008 Z"/>
</svg>
